/* XPM */
static const char *_356_xpm[] = {
/* columns rows colors chars-per-pixel */
"16 16 2 1",
". c #0000FF",
"  c None",
/* pixels */
"                ",
"                ",
"                ",
"                ",
"  ....  .   .   ",
"  .    .     .  ",
"  .    . . . .  ",
"  ...  .  .  .  ",
"  .    . . . .  ",
"  .    .     .  ",
"  .     .   .   ",
"                ",
"                ",
"                ",
"                ",
"                "
};
