/* XPM */
static const char *s_addSection_xpm[] = {
/* columns rows colors chars-per-pixel */
"16 16 2 1",
". c Black",
"  c #C0C0C0",
/* pixels */
"                ",
"                ",
"     .....      ",
"     .....      ",
"     ..         ",
"     ..         ",
"     ..         ",
"     ..         ",
"     ..         ",
"     ..         ",
"     ..         ",
"     ..         ",
"     .....      ",
"     .....      ",
"                ",
"................"
};
