/* XPM */
static const char *s_showCells_xpm[] = {
/* columns rows colors chars-per-pixel */
"16 16 3 1",
"X c Black",
". c #808080",
"  c #C0C0C0",
/* pixels */
"                ",
"                ",
"............... ",
". ... ... ... . ",
"............... ",
"                ",
"X      X      X ",
"                ",
"X X X X X X X X ",
"                ",
"X      X      X ",
"                ",
"X X X X X X X X ",
"                ",
"                ",
"XXXXXXXXXXXXXXXX"
};
