/* XPM */
static const char *s_showSections_xpm[] = {
/* columns rows colors chars-per-pixel */
"16 16 4 1",
". c Black",
"X c #FFFFFF",
"o c #808080",
"  c #C0C0C0",
/* pixels */
"                ",
"                ",
"                ",
"................",
".X.X.X.X.X.X.X.o",
".X.X.X.X.X.X.X.o",
".XXXXX.XXXXX.XXo",
".XXXXX.XXXXX.XXo",
".XXXXXXXXXXXXXoo",
".XXXXXXXXXXXXXo ",
".XXXXXXXXXXXXXo ",
".XXXXXXXXXXXXoo ",
".............o  ",
"                ",
"                ",
"................"
};
