/* XPM */
static const char *s_functionBlue_xpm[] = {
/* columns rows colors chars-per-pixel */
"16 16 2 1",
". c #FF0000",
"  c None",
/* pixels */
"                ",
"                ",
"                ",
"   ..           ",
"  ..            ",
"  ..   .   .    ",
" .... .     .   ",
"  ..  . . . .   ",
"  ..  .  .  .   ",
"  ..  . . . .   ",
"  ..  .     .   ",
"  ..   .   .    ",
"  ..            ",
"                ",
"                ",
"                "
};
