/* XPM */
static const char *s_procedureBlue_xpm[] = {
/* columns rows colors chars-per-pixel */
"16 16 2 1",
". c #FF3333",
"  c None",
/* pixels */
"                ",
"                ",
"                ",
"                ",
"                ",
"  ....   .  .   ",
"  .   . .    .  ",
"  .   . .    .  ",
"  .   . .    .  ",
"  ....  .    .  ",
"  .     .    .  ",
"  .      .  .   ",
"                ",
"                ",
"                ",
"                "
};