/* XPM */
static const char *s_proceduresFunctions_xpm[] = {
/* columns rows colors chars-per-pixel */
"16 16 4 1",
"X c Black",
". c #808080",
"o c #000080",
"  c #C0C0C0",
/* pixels */
"     .X   .X    ",
"     XX   XX    ",
"    X..X X..X   ",
"    XXXXXXXXX   ",
"   X..XXXX..XX  ",
"   X..XX X..XX  ",
"   XXXXX XXXXX  ",
"   X..X   X..X  ",
"   XXXX   XXXX  ",
"                ",
" ooo ooo ooo ooo",
" o o o o o o o  ",
" ooo ooo o o o  ",
" o   oo  o o o  ",
" o   o o ooo ooo",
"XXXXXXXXXXXXXXXX"
};
